<svg id="Layer_1" data-name="Layer 1" xmlns="http://www.w3.org/2000/svg" width="1039.47442" height="1675.91104" viewBox="0 0 1039.47442 1675.91104">
  <path d="M556.98415,1681.56545s9.03673,12.614,13.682,18.46669c44.01913,55.4606,100.61317,84.99949,168.05945,84.99949,103.38557,0,156.30853-61.33313,156.30853-185.19649V1090.05378l.29908-25.39728V882.2519h.09982c4.08882-188.58734,138.85557-316.00752,318.5673-316.00752,102.18887,0,189.81771,43.84729,243.33842,126.58911v-506.789h86.39846v1030.994H1460.9958V1084.63556c-52.35769,86.36519-141.14955,132.63915-246.99547,132.63915-76.49212,0-144.87275-23.30336-198.49368-64.59087v-126.865c9.85886,18.54456,32.82784,55.59149,77.24487,83.08187,52.76673,32.65863,104.15091,32.24066,128.52882,31.71555,23.23762-.50075,91.34677-2.73913,151.26163-52.00951,53.12952-43.69065,86.02716-112.544,86.02716-197.4455,0-149.65995-102.22215-249.45542-237.28879-249.45542-136.26292,0-238.51835,118.94346-238.51835,249.45542v705.11671c0,177.94975-84.10449,265.67761-245.26637,265.67761-94.975,0-181.57312-43.24915-233.23283-120.20631l28.08039-31.92807,24.36621-27.94063" transform="translate(-504.26279 -186.04448)"/>
</svg>
